{"accessors":[{"bufferView":2,"componentType":5126,"count":1604,"max":[25,35,1.8467257022857666],"min":[-25,-35,0],"type":"VEC3"},{"bufferView":2,"byteOffset":19248,"componentType":5126,"count":1604,"max":[0.9993547201156616,0.9993619322776794,1],"min":[-0.9993547201156616,-0.9993619322776794,-1],"type":"VEC3"},{"bufferView":3,"componentType":5126,"count":1604,"max":[1,0.9235200881958008,1,1],"min":[-1,-0.4155404567718506,-1,-1],"type":"VEC4"},{"bufferView":1,"componentType":5126,"count":1604,"max":[0.7031007409095764,0.9862982630729675],"min":[0.0005000000237487257,0.0005000000237487257],"type":"VEC2"},{"bufferView":0,"componentType":5125,"count":6222,"max":[1603],"min":[0],"type":"SCALAR"},{"bufferView":2,"byteOffset":38496,"componentType":5126,"count":4,"max":[18.710708618164062,28.710708618164062,1.1242412328720093],"min":[-18.710708618164062,-28.710708618164062,1.1242412328720093],"type":"VEC3"},{"bufferView":2,"byteOffset":38544,"componentType":5126,"count":4,"max":[0,0,1],"min":[0,0,1],"type":"VEC3"},{"bufferView":3,"byteOffset":25664,"componentType":5126,"count":4,"max":[1,0.0015115627320483327,0,1],"min":[0.999998927116394,-0.0006940754828974605,0,1],"type":"VEC4"},{"bufferView":1,"byteOffset":12832,"componentType":5126,"count":4,"max":[0.9511193633079529,0.9621246457099915],"min":[0.04942703619599342,0.03891316428780556],"type":"VEC2"},{"bufferView":0,"byteOffset":24888,"componentType":5125,"count":6,"max":[3],"min":[0],"type":"SCALAR"},{"bufferView":2,"byteOffset":38592,"componentType":5126,"count":32,"max":[22,32,1.1412880420684814],"min":[-22,-32,1.1242412328720093],"type":"VEC3"},{"bufferView":2,"byteOffset":38976,"componentType":5126,"count":32,"max":[1,1,1],"min":[-1,-1,0],"type":"VEC3"},{"bufferView":3,"byteOffset":25728,"componentType":5126,"count":32,"max":[0,0.00007708110206294805,1,-1],"min":[-1,-0.0003554100403562188,-1,-1],"type":"VEC4"},{"bufferView":1,"byteOffset":12864,"componentType":5126,"count":32,"max":[0.7030513286590576,0.9570356607437134],"min":[0.253598153591156,0.0005562048754654825],"type":"VEC2"},{"bufferView":0,"byteOffset":24912,"componentType":5125,"count":72,"max":[31],"min":[0],"type":"SCALAR"},{"bufferView":2,"byteOffset":39360,"componentType":5126,"count":24,"max":[22.0156307220459,31.999961853027344,1.6757595539093018],"min":[-21.984373092651367,-32,1.412703037261963],"type":"VEC3"},{"bufferView":2,"byteOffset":39648,"componentType":5126,"count":24,"max":[1,1,1],"min":[-1,-5.960468030252741e-8,-1],"type":"VEC3"},{"bufferView":3,"byteOffset":26240,"componentType":5126,"count":24,"max":[1,9.024423605321814e-23,1,-1],"min":[-1,0,-1,-1],"type":"VEC4"},{"bufferView":1,"byteOffset":13120,"componentType":5126,"count":24,"max":[0.999500036239624,0.9735469222068787],"min":[0.30688196420669556,0.0005000000237487257],"type":"VEC2"},{"bufferView":0,"byteOffset":25200,"componentType":5125,"count":30,"max":[23],"min":[0],"type":"SCALAR"}],"asset":{"extras":{"author":"Dylan Dreyer Varsics (https://sketchfab.com/d.varsics)","license":"CC-BY-4.0 (http://creativecommons.org/licenses/by/4.0/)","source":"https://sketchfab.com/3d-models/3d-architecture-photo-frame-33bedcb0e2064a3a97c19658e254af74","title":"3D Architecture | Photo frame"},"generator":"Sketchfab-6.76.0","version":"2.0"},"bufferViews":[{"buffer":0,"byteLength":25320,"byteOffset":0,"name":"floatBufferViews","target":34963},{"buffer":0,"byteLength":13312,"byteOffset":25320,"byteStride":8,"name":"floatBufferViews","target":34962},{"buffer":0,"byteLength":39936,"byteOffset":38632,"byteStride":12,"name":"floatBufferViews","target":34962},{"buffer":0,"byteLength":26624,"byteOffset":78568,"byteStride":16,"name":"floatBufferViews","target":34962}],"buffers":[{"byteLength":105192,"uri":"data:application/octet-stream;base64,"}],"images":[{"uri":"data:application/octet-stream;base64,"}],"materials":[{"doubleSided":true,"name":"Material_25","pbrMetallicRoughness":{"baseColorFactor":[0.0158762935,0.0158762935,0.0158762935,1],"metallicFactor":0.044397865853658534,"roughnessFactor":0.39195884146341464}},{"doubleSided":true,"emissiveFactor":[0,0,0],"name":"Material_350","pbrMetallicRoughness":{"baseColorFactor":[0.588,0.588,0.588,1],"metallicFactor":1,"metallicRoughnessTexture":{"index":0,"texCoord":0},"roughnessFactor":0.8929713596}},{"doubleSided":true,"emissiveFactor":[0,0,0],"name":"Frame","pbrMetallicRoughness":{"baseColorFactor":[0.9406652058,0.8940805117,0.8940805117,1],"metallicFactor":0.7395198171,"roughnessFactor":1}},{"alphaMode":"BLEND","doubleSided":true,"emissiveFactor":[0,0,0],"name":"Material_26","pbrMetallicRoughness":{"baseColorFactor":[0.588235,0.631373,0.811765,0.0504954268],"metallicFactor":0,"roughnessFactor":0.8929713596}}],"meshes":[{"name":"Box046_Material #25_0","primitives":[{"attributes":{"NORMAL":1,"POSITION":0,"TANGENT":2,"TEXCOORD_0":3},"indices":4,"material":0,"mode":4}]},{"name":"Box046_Material #350_0","primitives":[{"attributes":{"NORMAL":6,"POSITION":5,"TANGENT":7,"TEXCOORD_0":8},"indices":9,"material":1,"mode":4}]},{"name":"Box046_Frame_0","primitives":[{"attributes":{"NORMAL":11,"POSITION":10,"TANGENT":12,"TEXCOORD_0":13},"indices":14,"material":2,"mode":4}]},{"name":"Box046_Material #26_0","primitives":[{"attributes":{"NORMAL":16,"POSITION":15,"TANGENT":17,"TEXCOORD_0":18},"indices":19,"material":3,"mode":4}]}],"nodes":[{"children":[1],"name":"RootNode (gltf orientation matrix)","rotation":[-0.7071067811865475,0,0,0.7071067811865476]},{"children":[2],"name":"RootNode (model correction matrix)"},{"children":[3],"matrix":[1,0,0,0,0,0,1,0,0,-1,0,0,0,0,0,1],"name":"6578199fe39646888856dd3816050d08.fbx"},{"children":[4],"name":"RootNode"},{"children":[5],"matrix":[4.3711388175715626e-8,-6.617444900424222e-24,-0.999999999999999,0,4.371138822550555e-8,0.999999999999999,1.9106854552385377e-15,0,0.9999999999999981,-4.37113882255056e-8,4.3711388175715626e-8,0,0.000004887580871582031,-4.036147061015072e-8,-4.036147061015072e-8,1],"name":"Box046"},{"children":[6,7,8,9],"matrix":[1,0,0,0,0,1,0,0,0,0,1,0,-4.036125744732999e-8,4.036125744732999e-8,-0.000004887580871582031,1],"name":""},{"mesh":0,"name":"Box046_Material #25_0"},{"mesh":1,"name":"Box046_Material #350_0"},{"mesh":2,"name":"Box046_Frame_0"},{"mesh":3,"name":"Box046_Material #26_0"}],"samplers":[{"magFilter":9729,"minFilter":9987,"wrapS":10497,"wrapT":10497}],"scene":0,"scenes":[{"name":"OSG_Scene","nodes":[0]}],"textures":[{"sampler":0,"source":0}]}